HIERARCHY
ROOT Hips
{
  OFFSET -415.057 92.5527 812.971
  CHANNELS 6 Xposition Yposition Zposition Zrotation Xrotation Yrotation
  JOINT Spine
  {
    OFFSET -2.0673e-05 8 2.05814e-05
    CHANNELS 6 Xposition Yposition Zposition Zrotation Xrotation Yrotation
    JOINT Spine1
    {
      OFFSET 0 8 0
      CHANNELS 6 Xposition Yposition Zposition Zrotation Xrotation Yrotation
      JOINT Spine2
      {
        OFFSET 0 8 0
        CHANNELS 6 Xposition Yposition Zposition Zrotation Xrotation Yrotation
        JOINT Spine3
        {
          OFFSET 0 8 0
          CHANNELS 6 Xposition Yposition Zposition Zrotation Xrotation Yrotation
          JOINT Neck
          {
            OFFSET -0.000177258 17 -0.000134615
            CHANNELS 6 Xposition Yposition Zposition Zrotation Xrotation Yrotation
            JOINT Head
            {
              OFFSET 0 10.8 1.95367e-05
              CHANNELS 6 Xposition Yposition Zposition Zrotation Xrotation Yrotation
              End Site
              {
                OFFSET 0 20.25 0
              }
            }
          }
          JOINT LeftShoulder
          {
            OFFSET 4.99981 17.0001 -0.000127893
            CHANNELS 6 Xposition Yposition Zposition Zrotation Xrotation Yrotation
            JOINT LeftShoulder2
            {
              OFFSET 6.45 0 0
              CHANNELS 6 Xposition Yposition Zposition Zrotation Xrotation Yrotation
              JOINT LeftArm
              {
                OFFSET 6.45003 -0.000123265 -0.000845143
                CHANNELS 6 Xposition Yposition Zposition Zrotation Xrotation Yrotation
                JOINT LeftForeArm
                {
                  OFFSET 0 -32.4 -1.99993
                  CHANNELS 6 Xposition Yposition Zposition Zrotation Xrotation Yrotation
                  JOINT LeftHand
                  {
                    OFFSET -4.07646e-05 -25.65 2
                    CHANNELS 6 Xposition Yposition Zposition Zrotation Xrotation Yrotation
                    JOINT LeftHandThumb1
                    {
                      OFFSET -0.49998 -1.49996 2.65001
                      CHANNELS 6 Xposition Yposition Zposition Zrotation Xrotation Yrotation
                      JOINT LeftHandThumb2
                      {
                        OFFSET -1.26972e-05 -3.79998 3.70003
                        CHANNELS 6 Xposition Yposition Zposition Zrotation Xrotation Yrotation
                        JOINT LeftHandThumb3
                        {
                          OFFSET 2.8111e-05 -3 2.69995
                          CHANNELS 6 Xposition Yposition Zposition Zrotation Xrotation Yrotation
                          End Site
                          {
                            OFFSET -1.01356e-05 -2.3 1.79999
                          }
                        }
                      }
                    }
                    JOINT LeftHandIndex
                    {
                      OFFSET 5.09962e-05 -1.90004 1.59998
                      CHANNELS 6 Xposition Yposition Zposition Zrotation Xrotation Yrotation
                      JOINT LeftHandIndex1
                      {
                        OFFSET 0 -8.29999 1.90002
                        CHANNELS 6 Xposition Yposition Zposition Zrotation Xrotation Yrotation
                        JOINT LeftHandIndex2
                        {
                          OFFSET -1.7128e-05 -4.49994 -2.07597e-05
                          CHANNELS 6 Xposition Yposition Zposition Zrotation Xrotation Yrotation
                          JOINT LeftHandIndex3
                          {
                            OFFSET -1.5072e-05 -3.39999 0
                            CHANNELS 6 Xposition Yposition Zposition Zrotation Xrotation Yrotation
                            End Site
                            {
                              OFFSET -3.76006e-05 -2.59995 1.88611e-05
                            }
                          }
                        }
                      }
                    }
                    JOINT LeftHandMiddle
                    {
                      OFFSET -0.249979 -2.19997 0.399999
                      CHANNELS 6 Xposition Yposition Zposition Zrotation Xrotation Yrotation
                      JOINT LeftHandMiddle1
                      {
                        OFFSET 0 -8.29994 0.999966
                        CHANNELS 6 Xposition Yposition Zposition Zrotation Xrotation Yrotation
                        JOINT LeftHandMiddle2
                        {
                          OFFSET -2.11651e-05 -4.65001 3.47807e-05
                          CHANNELS 6 Xposition Yposition Zposition Zrotation Xrotation Yrotation
                          JOINT LeftHandMiddle3
                          {
                            OFFSET -2.32051e-05 -3.30002 1.17618e-05
                            CHANNELS 6 Xposition Yposition Zposition Zrotation Xrotation Yrotation
                            End Site
                            {
                              OFFSET -4.63627e-05 -2.69999 -1.81122e-05
                            }
                          }
                        }
                      }
                    }
                    JOINT LeftHandRing
                    {
                      OFFSET -0.499986 -2.15002 -0.800009
                      CHANNELS 6 Xposition Yposition Zposition Zrotation Xrotation Yrotation
                      JOINT LeftHandRing1
                      {
                        OFFSET 1.95477e-05 -7.74999 -0.200004
                        CHANNELS 6 Xposition Yposition Zposition Zrotation Xrotation Yrotation
                        JOINT LeftHandRing2
                        {
                          OFFSET -1.20275e-05 -3.80006 0
                          CHANNELS 6 Xposition Yposition Zposition Zrotation Xrotation Yrotation
                          JOINT LeftHandRing3
                          {
                            OFFSET 0 -3.4 0
                            CHANNELS 6 Xposition Yposition Zposition Zrotation Xrotation Yrotation
                            End Site
                            {
                              OFFSET -7.33533e-05 -2.60005 2.21947e-05
                            }
                          }
                        }
                      }
                    }
                    JOINT LeftHandPinky
                    {
                      OFFSET -0.749983 -1.74998 -1.85003
                      CHANNELS 6 Xposition Yposition Zposition Zrotation Xrotation Yrotation
                      JOINT LeftHandPinky1
                      {
                        OFFSET -3.90435e-05 -7.15003 -0.999961
                        CHANNELS 6 Xposition Yposition Zposition Zrotation Xrotation Yrotation
                        JOINT LeftHandPinky2
                        {
                          OFFSET 1.52852e-05 -3.0002 0
                          CHANNELS 6 Xposition Yposition Zposition Zrotation Xrotation Yrotation
                          JOINT LeftHandPinky3
                          {
                            OFFSET -2.12876e-05 -2.35001 -1.13627e-05
                            CHANNELS 6 Xposition Yposition Zposition Zrotation Xrotation Yrotation
                            End Site
                            {
                              OFFSET 1.2118e-05 -2.09999 0
                            }
                          }
                        }
                      }
                    }
                  }
                }
              }
            }
          }
          JOINT RightShoulder
          {
            OFFSET -5.00019 16.9999 -7.85609e-05
            CHANNELS 6 Xposition Yposition Zposition Zrotation Xrotation Yrotation
            JOINT RightShoulder2
            {
              OFFSET -6.45 0 0
              CHANNELS 6 Xposition Yposition Zposition Zrotation Xrotation Yrotation
              JOINT RightArm
              {
                OFFSET -6.44998 0 -0.000772972
                CHANNELS 6 Xposition Yposition Zposition Zrotation Xrotation Yrotation
                JOINT RightForeArm
                {
                  OFFSET -4.98389e-05 -32.4 -2.00002
                  CHANNELS 6 Xposition Yposition Zposition Zrotation Xrotation Yrotation
                  JOINT RightHand
                  {
                    OFFSET 5.49621e-05 -25.65 1.99999
                    CHANNELS 6 Xposition Yposition Zposition Zrotation Xrotation Yrotation
                    JOINT RightHandThumb1
                    {
                      OFFSET 0.499965 -1.50001 2.64998
                      CHANNELS 6 Xposition Yposition Zposition Zrotation Xrotation Yrotation
                      JOINT RightHandThumb2
                      {
                        OFFSET 0 -3.80005 3.70001
                        CHANNELS 6 Xposition Yposition Zposition Zrotation Xrotation Yrotation
                        JOINT RightHandThumb3
                        {
                          OFFSET -4.47025e-05 -3 2.69999
                          CHANNELS 6 Xposition Yposition Zposition Zrotation Xrotation Yrotation
                          End Site
                          {
                            OFFSET 0 -2.30001 1.80002
                          }
                        }
                      }
                    }
                    JOINT RightHandIndex
                    {
                      OFFSET 5.53388e-05 -1.89995 1.6
                      CHANNELS 6 Xposition Yposition Zposition Zrotation Xrotation Yrotation
                      JOINT RightHandIndex1
                      {
                        OFFSET -7.63686e-05 -8.30005 1.89995
                        CHANNELS 6 Xposition Yposition Zposition Zrotation Xrotation Yrotation
                        JOINT RightHandIndex2
                        {
                          OFFSET 0 -4.49999 6.23942e-05
                          CHANNELS 6 Xposition Yposition Zposition Zrotation Xrotation Yrotation
                          JOINT RightHandIndex3
                          {
                            OFFSET 5.2936e-05 -3.4 -2.68922e-05
                            CHANNELS 6 Xposition Yposition Zposition Zrotation Xrotation Yrotation
                            End Site
                            {
                              OFFSET -4.08845e-05 -2.59998 0
                            }
                          }
                        }
                      }
                    }
                    JOINT RightHandMiddle
                    {
                      OFFSET 0.249979 -2.2 0.40003
                      CHANNELS 6 Xposition Yposition Zposition Zrotation Xrotation Yrotation
                      JOINT RightHandMiddle1
                      {
                        OFFSET 3.8132e-05 -8.29995 0.999984
                        CHANNELS 6 Xposition Yposition Zposition Zrotation Xrotation Yrotation
                        JOINT RightHandMiddle2
                        {
                          OFFSET -4.04555e-05 -4.64999 -4.82606e-05
                          CHANNELS 6 Xposition Yposition Zposition Zrotation Xrotation Yrotation
                          JOINT RightHandMiddle3
                          {
                            OFFSET 3.2458e-05 -3.29999 1.15341e-05
                            CHANNELS 6 Xposition Yposition Zposition Zrotation Xrotation Yrotation
                            End Site
                            {
                              OFFSET -4.51106e-05 -2.69994 8.05301e-05
                            }
                          }
                        }
                      }
                    }
                    JOINT RightHandRing
                    {
                      OFFSET 0.499994 -2.15001 -0.800021
                      CHANNELS 6 Xposition Yposition Zposition Zrotation Xrotation Yrotation
                      JOINT RightHandRing1
                      {
                        OFFSET 0 -7.75002 -0.200039
                        CHANNELS 6 Xposition Yposition Zposition Zrotation Xrotation Yrotation
                        JOINT RightHandRing2
                        {
                          OFFSET 3.99138e-05 -3.8 3.37551e-05
                          CHANNELS 6 Xposition Yposition Zposition Zrotation Xrotation Yrotation
                          JOINT RightHandRing3
                          {
                            OFFSET -2.3749e-05 -3.39998 -1.16923e-05
                            CHANNELS 6 Xposition Yposition Zposition Zrotation Xrotation Yrotation
                            End Site
                            {
                              OFFSET 0 -2.59997 -2.03968e-05
                            }
                          }
                        }
                      }
                    }
                    JOINT RightHandPinky
                    {
                      OFFSET 0.750043 -1.74993 -1.84998
                      CHANNELS 6 Xposition Yposition Zposition Zrotation Xrotation Yrotation
                      JOINT RightHandPinky1
                      {
                        OFFSET -7.54386e-05 -7.15004 -0.999978
                        CHANNELS 6 Xposition Yposition Zposition Zrotation Xrotation Yrotation
                        JOINT RightHandPinky2
                        {
                          OFFSET 3.92758e-05 -3 2.10491e-05
                          CHANNELS 6 Xposition Yposition Zposition Zrotation Xrotation Yrotation
                          JOINT RightHandPinky3
                          {
                            OFFSET -3.11904e-05 -2.35 0
                            CHANNELS 6 Xposition Yposition Zposition Zrotation Xrotation Yrotation
                            End Site
                            {
                              OFFSET 1.34437e-05 -2.0999 0
                            }
                          }
                        }
                      }
                    }
                  }
                }
              }
            }
          }
        }
      }
    }
  }
  JOINT LeftUpLeg
  {
    OFFSET 7.99999 0 2.49177e-05
    CHANNELS 6 Xposition Yposition Zposition Zrotation Xrotation Yrotation
    JOINT LeftLeg
    {
      OFFSET 2.69094e-05 -45 -1.00004
      CHANNELS 6 Xposition Yposition Zposition Zrotation Xrotation Yrotation
      JOINT LeftFoot
      {
        OFFSET 0 -41.0001 -1.99999
        CHANNELS 6 Xposition Yposition Zposition Zrotation Xrotation Yrotation
        JOINT LeftToeBase
        {
          OFFSET 1.10033e-05 -7.5 12.5
          CHANNELS 6 Xposition Yposition Zposition Zrotation Xrotation Yrotation
          JOINT LeftFootToe
          {
            OFFSET 0 0 4
            CHANNELS 6 Xposition Yposition Zposition Zrotation Xrotation Yrotation
            End Site
            {
              OFFSET 0 0 0
            }
          }
        }
      }
    }
  }
  JOINT RightUpLeg
  {
    OFFSET -7.99999 0 -2.49177e-05
    CHANNELS 6 Xposition Yposition Zposition Zrotation Xrotation Yrotation
    JOINT RightLeg
    {
      OFFSET 0 -45 -0.999963
      CHANNELS 6 Xposition Yposition Zposition Zrotation Xrotation Yrotation
      JOINT RightFoot
      {
        OFFSET 0 -41.0001 -2.00004
        CHANNELS 6 Xposition Yposition Zposition Zrotation Xrotation Yrotation
        JOINT RightToeBase
        {
          OFFSET 0 -7.50001 12.5
          CHANNELS 6 Xposition Yposition Zposition Zrotation Xrotation Yrotation
          JOINT RightFootToe
          {
            OFFSET 0 0 4
            CHANNELS 6 Xposition Yposition Zposition Zrotation Xrotation Yrotation
            End Site
            {
              OFFSET 0 0 0
            }
          }
        }
      }
    }
  }
}
MOTION
Frames:	2
Frame Time:	0.0111111
-415.056 92.553 812.969 -2.41862 -2.18073 -137.919 -1.54449e-05 8 3.39104e-06 -1.93925 3.39145 4.06817 3.05323e-06 8 -2.13291e-05 0.112401 0.204648 1.54323 7.34485e-06 8 3.403e-05 0.0596542 0.102012 0.771675 -1.13687e-13 8 0 0.0601906 0.102506 0.7724 -0.000172248 17 -0.00025595 1.84015 3.96364 16.1439 3.49616e-05 10.8 1.10897e-05 -2.1693 -4.76133 38.3034 4.9998 17 -0.000193509 -7.65196 6.77291 -8.10953 6.45 -2.84217e-14 -5.68434e-14 -0.996189 0.916258 -0.554291 6.45002 0.000119746 0.000350531 34.8322 -6.50691 60.8171 -4.90135e-06 -32.4 -1.99695 -59.8921 -45.5314 -34.3034 -1.03261e-05 -25.65 2 -56.921 63.9153 39.9972 -0.499992 -1.49998 2.64999 -8.74954 -67.0841 -18.1796 -4.13717e-07 -3.79998 3.70004 -0.160691 21.9461 -0.0250546 3.5402e-07 -3.00004 2.69995 -0.0367474 53.0784 0.0329207 1.35361e-05 -1.90009 1.59998 6.18382e-06 -8.212e-06 -5.57194e-06 6.88047e-06 -8.29995 1.9 -1.27205 -9.42763 -0.057279 -2.07565e-06 -4.49996 -5.41051e-06 -3.33598 -0.0151331 -0.0183503 -4.28726e-05 -3.4239 2.15166e-05 -5.22164e-06 -0.0157924 -0.0226531 -0.249993 -2.2 0.4 6.18382e-06 -8.212e-06 -5.57194e-06 -1.49941e-05 -8.29998 0.999993 -5.80042 6.97244 0.859519 -2.49054e-09 -4.64997 1.1277e-06 -0.000127842 -0.101248 -0.0933172 -2.56664e-05 -3.30004 1.15377e-05 -3.77777e-05 -0.0956441 -0.0906756 -0.500014 -2.15006 -0.800018 6.18382e-06 -8.212e-06 -5.57194e-06 -8.50461e-06 -7.75001 -0.199999 -7.21675 16.987 1.96466 1.00437e-05 -3.84935 9.02652e-07 -1.359 -0.0928701 0.104511 -1.27827e-05 -3.40003 1.35011e-05 -2.01623e-07 -0.0833896 0.101911 -0.75002 -1.75003 -1.85001 6.18382e-06 -8.212e-06 -5.57194e-06 -1.75934e-05 -7.15 -0.999996 -6.23614 20.4654 2.01402 1.19021e-05 -3.00609 8.6701e-07 -21.4536 -0.00427573 0.0124745 -1.80488e-05 -2.35002 5.30195e-06 -7.47908 -0.0166859 0.0120644 -5.0002 16.9999 -0.000337222 3.46036 10.348 0.915806 -6.45 0 0 -0.804542 -0.206523 -2.45115 -6.44999 0.000195905 -0.000384437 -43.3859 26.9675 -20.0011 -7.16054e-05 -32.4 -1.99994 86.8082 -57.073 107.42 5.84589e-05 -25.65 1.99999 21.8313 13.0072 -1.25254 0.499998 -1.50004 2.65002 -93.4805 7.96008 -56.7899 -5.89644e-05 -3.80006 3.70003 0.730525 51.1621 0.178324 -8.6633e-06 -3 2.69999 0.265917 52.793 -0.66126 6.03382e-05 -1.89997 1.6 1.20352e-05 1.36138e-06 -7.54789e-07 -6.11137e-05 -8.30001 1.89996 15.2764 -11.7022 1.43391 -3.22398e-05 -4.49998 4.85188e-05 11.2377 -0.00895866 -0.00873049 4.50079e-05 -3.39999 -1.6755e-05 9.7508 0.00212311 0.0136876 0.249969 -2.19998 0.400045 1.20352e-05 1.36138e-06 -7.54789e-07 2.38203e-05 -8.29996 0.999989 15.9438 -9.9986 1.16741 -1.20684e-05 -4.65003 -2.47509e-05 92.0531 -0.00348459 -0.00366859 3.49888e-05 -3.29996 -1.01941e-05 85.4541 0.00425728 -0.00397023 0.499994 -2.15003 -0.799997 1.20352e-05 1.36138e-06 -7.54789e-07 3.32831e-05 -7.75001 -0.200036 16.0355 -7.28909 0.636421 4.06855e-06 -3.8 1.66202e-05 82.5191 -0.000270185 -0.00392028 -2.5278e-05 -3.39995 -9.48401e-06 70.5945 -0.00146341 -0.00861329 0.750031 -1.74996 -1.84996 1.20352e-05 1.36138e-06 -7.54789e-07 -3.73632e-05 -7.15 -0.999996 17.6975 -6.05919 0.423857 -5.09541e-06 -2.99998 2.36568e-05 55.944 -0.00487914 -0.00535288 -1.51668e-05 -2.35003 -1.12032e-05 38.8067 -0.00300672 0.000885114 8.00001 7.23545e-08 -1.02509e-05 13.1557 -14.6377 2.642 6.78584e-06 -45 -1.00005 1.186 2.4434 14.8188 4.7885e-06 -41 -2.00001 -13.4723 16.3449 -32.0632 -1.91192e-05 -7.5 12.5 -1.9815e-07 -4.21757e-07 -3.33842e-06 1.13687e-13 8.88178e-16 4 3.4212 -2.8723 50.269 -8.00001 -7.23545e-08 1.02509e-05 -11.1709 -14.2231 1.37315 8.32895e-06 -45 -1.00001 -0.189593 16.3033 -6.01691 -5.4844e-06 -41 -2.00006 13.1008 -5.37515 -29.8668 2.94971e-05 -7.5 12.5 -0.000181538 0.0109232 1.53288e-05 -5.68434e-14 -7.10543e-15 4 -4.49351 0.110959 22.7587 
-415.174 92.5585 813.128 -2.46855 -2.2157 -138.077 -1.54449e-05 8 3.39104e-06 -2.0706 3.41637 4.13572 3.05323e-06 8 -2.13291e-05 0.108134 0.15786 1.57846 7.34485e-06 8 3.403e-05 0.0576528 0.0786222 0.789279 0 8 1.13687e-13 0.0600864 0.0784375 0.788977 -0.000172248 17 -0.00025595 1.80336 3.98716 16.1306 3.49616e-05 10.8 1.10897e-05 -2.15702 -4.78881 38.2662 4.9998 17 -0.000193509 -7.62837 6.8074 -8.051 6.45 -2.84217e-14 0 -0.988851 0.919511 -0.559928 6.45002 0.000119746 0.000350531 34.8931 -6.52463 60.8227 -4.90135e-06 -32.4 -1.99695 -59.8322 -45.569 -34.316 -1.03261e-05 -25.65 2 -56.8692 63.9717 39.7608 -0.499992 -1.49998 2.64999 -8.39407 -67.1334 -17.7589 -4.13717e-07 -3.79998 3.70004 -0.161492 21.8616 -0.0229942 3.5402e-07 -3.00004 2.69995 -0.0369099 53.2476 0.0330508 1.35361e-05 -1.90009 1.59998 6.18382e-06 -8.212e-06 -5.57194e-06 6.88047e-06 -8.29995 1.9 -1.1877 -9.12125 -0.0507312 -2.07565e-06 -4.49996 -5.41051e-06 -3.33598 -0.0151331 -0.0183503 -4.28726e-05 -3.4239 2.15166e-05 -5.22164e-06 -0.0157924 -0.0226531 -0.249993 -2.2 0.4 6.18382e-06 -8.212e-06 -5.57194e-06 -1.49941e-05 -8.29998 0.999993 -5.62424 6.94282 0.834689 -2.49054e-09 -4.64997 1.1277e-06 -0.000134913 -0.103413 -0.095281 -2.56664e-05 -3.30004 1.15377e-05 -4.42997e-05 -0.0977024 -0.0925901 -0.500014 -2.15006 -0.800018 6.18382e-06 -8.212e-06 -5.57194e-06 -8.50461e-06 -7.75001 -0.199999 -7.07739 16.8723 1.92175 1.00437e-05 -3.84935 9.02652e-07 -1.359 -0.0928701 0.106647 -1.27827e-05 -3.40003 1.35011e-05 2.81411e-06 -0.0833896 0.103984 -0.75002 -1.75003 -1.85001 6.18382e-06 -8.212e-06 -5.57194e-06 -1.75934e-05 -7.15 -0.999996 -6.11334 20.2864 1.96575 1.19021e-05 -3.00609 8.67009e-07 -20.8928 -0.00427573 0.0124745 -1.80488e-05 -2.35002 5.30195e-06 -7.01088 -0.0147943 0.0120644 -5.0002 16.9999 -0.000337222 3.43359 10.3638 0.963193 -6.45 0 -5.68434e-14 -0.806711 -0.206097 -2.46343 -6.44999 0.000195905 -0.000384437 -43.4618 26.8163 -19.8501 -7.16054e-05 -32.4 -1.99994 86.9073 -57.0362 107.43 5.84589e-05 -25.65 1.99999 21.8551 13.2178 -0.940932 0.499998 -1.50004 2.65002 -93.5628 8.3081 -56.4795 -5.89644e-05 -3.80006 3.70003 0.731112 51.0435 0.177867 -8.6633e-06 -3 2.69999 0.265917 52.793 -0.66126 6.03382e-05 -1.89997 1.6 1.20352e-05 1.36138e-06 -7.54789e-07 -6.11137e-05 -8.30001 1.89996 15.7765 -11.4077 1.44268 -3.22397e-05 -4.49998 4.85188e-05 11.0422 -0.00895866 -0.00873049 4.50079e-05 -3.39999 -1.6755e-05 9.60382 0.00212311 0.0136876 0.249969 -2.19998 0.400045 1.20352e-05 1.36138e-06 -7.54789e-07 2.38203e-05 -8.29996 0.999989 16.6626 -9.79759 1.18387 -1.20684e-05 -4.65003 -2.47509e-05 91.9854 -0.00348459 -0.00366859 3.49888e-05 -3.29996 -1.01941e-05 85.2535 0.00425728 -0.00397023 0.499994 -2.15003 -0.799997 1.20352e-05 1.36138e-06 -7.54789e-07 3.32831e-05 -7.75001 -0.200036 17.0213 -7.31935 0.66152 4.06855e-06 -3.8 1.66202e-05 82.8293 -0.000270185 -0.00392028 -2.5278e-05 -3.39995 -9.48401e-06 71.2238 -0.00146341 -0.00861329 0.750031 -1.74996 -1.84996 1.20352e-05 1.36138e-06 -7.54789e-07 -3.73632e-05 -7.15 -0.999996 18.9472 -6.22087 0.453989 -5.09541e-06 -2.99998 2.36568e-05 56.2147 -0.00377683 -0.00535288 -1.51668e-05 -2.35003 -1.12032e-05 39.0208 -0.00217793 -0.000146876 8.00001 7.23544e-08 -1.02509e-05 13.0005 -14.6045 2.70648 6.78584e-06 -45 -1.00005 1.18781 2.43657 14.8186 4.7885e-06 -41 -2.00001 -13.3644 16.3104 -32.0946 -1.91192e-05 -7.5 12.5 -1.9815e-07 -4.21757e-07 -3.33842e-06 0 0 4 3.3144 -2.98803 49.8608 -8.00001 -7.23545e-08 1.02509e-05 -10.7943 -14.1447 1.50607 8.32895e-06 -45 -1.00001 -0.194388 16.7127 -6.08226 -5.4844e-06 -41 -2.00006 13.1632 -5.50768 -29.5913 2.94971e-05 -7.5 12.5 -0.000181538 0.0109232 1.53288e-05 -5.68434e-14 7.10543e-15 4 -4.68719 0.250784 22.7328 
